<svg xmlns="http://www.w3.org/2000/svg" width="847" height="900" viewBox="0 0 847 900">
  <path d="M 524 7 L 522 7 L 520 5 L 501 5 L 496 9 L 494 9 L 488 15 L 480 28 L 476 32 L 476 34 L 472 38 L 472 40 L 468 43 L 468 45 L 464 49 L 462 54 L 460 55 L 456 62 L 454 63 L 452 68 L 450 69 L 446 76 L 444 77 L 444 79 L 440 83 L 438 88 L 436 89 L 434 94 L 430 98 L 430 100 L 428 101 L 424 108 L 422 109 L 422 111 L 418 115 L 416 120 L 414 121 L 412 126 L 410 127 L 398 146 L 396 147 L 396 149 L 392 154 L 392 156 L 390 157 L 390 160 L 388 162 L 388 167 L 386 169 L 384 196 L 382 197 L 378 204 L 376 205 L 372 212 L 370 213 L 366 220 L 364 221 L 362 226 L 360 227 L 356 232 L 356 234 L 354 235 L 350 242 L 348 243 L 346 248 L 344 249 L 340 254 L 340 256 L 338 257 L 334 264 L 332 265 L 330 270 L 328 271 L 320 284 L 318 285 L 314 292 L 312 293 L 310 298 L 308 299 L 304 306 L 302 307 L 302 309 L 298 313 L 296 318 L 294 319 L 290 326 L 288 327 L 288 329 L 284 333 L 278 342 L 278 344 L 274 347 L 272 352 L 270 353 L 268 358 L 266 359 L 264 364 L 260 368 L 260 370 L 258 371 L 250 384 L 248 385 L 246 390 L 244 391 L 242 396 L 240 397 L 238 402 L 236 403 L 234 408 L 232 409 L 232 411 L 228 415 L 226 420 L 224 421 L 224 423 L 212 440 L 212 442 L 210 443 L 204 452 L 204 454 L 202 455 L 200 460 L 198 461 L 196 466 L 192 470 L 192 472 L 182 486 L 182 488 L 180 489 L 178 494 L 174 498 L 174 500 L 168 508 L 168 510 L 166 511 L 164 516 L 162 517 L 162 519 L 154 530 L 154 532 L 152 533 L 150 538 L 148 539 L 148 541 L 144 546 L 144 548 L 142 549 L 140 554 L 138 555 L 138 557 L 130 568 L 130 570 L 128 571 L 126 576 L 124 577 L 124 579 L 120 584 L 120 586 L 116 590 L 114 596 L 110 600 L 110 602 L 106 608 L 106 611 L 104 613 L 104 619 L 102 622 L 102 633 L 104 638 L 104 646 L 102 649 L 102 652 L 98 656 L 94 666 L 92 667 L 88 677 L 84 682 L 82 688 L 80 689 L 80 692 L 78 693 L 78 695 L 72 704 L 70 710 L 68 711 L 62 725 L 58 730 L 58 732 L 54 737 L 50 747 L 46 752 L 42 762 L 40 763 L 36 773 L 32 778 L 30 784 L 28 785 L 28 788 L 26 789 L 26 792 L 24 793 L 24 795 L 12 814 L 12 816 L 8 822 L 8 826 L 6 828 L 6 836 L 5 837 L 6 857 L 8 859 L 8 862 L 10 864 L 12 870 L 14 871 L 20 880 L 27 884 L 28 886 L 31 886 L 32 888 L 35 888 L 37 890 L 41 890 L 43 892 L 51 892 L 54 894 L 61 894 L 64 892 L 71 892 L 72 890 L 76 890 L 89 882 L 91 882 L 92 880 L 98 878 L 102 874 L 104 874 L 109 870 L 111 870 L 115 866 L 117 866 L 118 864 L 123 862 L 124 860 L 126 860 L 137 852 L 139 852 L 140 850 L 142 850 L 146 846 L 151 844 L 152 842 L 154 842 L 171 830 L 173 830 L 174 828 L 176 828 L 185 822 L 186 820 L 191 818 L 192 816 L 197 814 L 198 812 L 200 812 L 229 792 L 231 792 L 232 790 L 259 772 L 269 774 L 270 776 L 289 776 L 291 774 L 294 774 L 303 768 L 305 768 L 306 766 L 311 764 L 312 762 L 319 758 L 322 754 L 324 754 L 330 748 L 332 748 L 338 742 L 347 736 L 348 734 L 355 730 L 358 726 L 365 722 L 366 720 L 370 718 L 376 712 L 385 706 L 386 704 L 393 700 L 394 698 L 403 692 L 406 688 L 411 686 L 414 682 L 421 678 L 424 674 L 426 674 L 434 666 L 441 662 L 442 660 L 451 654 L 454 650 L 461 646 L 464 642 L 471 638 L 474 634 L 481 630 L 484 626 L 491 622 L 492 620 L 501 614 L 504 610 L 511 606 L 514 602 L 531 590 L 534 586 L 543 580 L 546 576 L 553 572 L 556 568 L 563 564 L 566 560 L 573 556 L 576 552 L 593 540 L 596 536 L 605 530 L 608 526 L 615 522 L 620 516 L 627 512 L 630 508 L 634 506 L 673 474 L 694 474 L 696 472 L 701 472 L 702 470 L 705 470 L 706 468 L 711 466 L 712 464 L 721 458 L 724 454 L 728 452 L 734 446 L 743 440 L 746 436 L 755 430 L 758 426 L 767 420 L 770 416 L 779 410 L 782 406 L 791 400 L 794 396 L 803 390 L 806 386 L 815 380 L 818 376 L 825 372 L 835 362 L 837 357 L 839 356 L 839 350 L 841 348 L 841 344 L 839 341 L 839 335 L 837 334 L 837 331 L 835 330 L 835 328 L 823 319 L 804 319 L 794 325 L 793 327 L 784 333 L 781 337 L 764 349 L 761 353 L 752 359 L 749 363 L 742 367 L 739 371 L 730 377 L 727 381 L 718 387 L 715 391 L 711 393 L 705 399 L 698 403 L 695 407 L 686 413 L 685 415 L 680 417 L 679 419 L 670 419 L 664 417 L 663 415 L 661 415 L 656 411 L 614 369 L 600 357 L 563 319 L 500 259 L 441 200 L 437 190 L 437 185 L 439 183 L 439 179 L 441 177 L 441 175 L 443 174 L 443 172 L 447 168 L 449 163 L 451 162 L 459 149 L 461 148 L 463 143 L 465 142 L 469 135 L 471 134 L 471 132 L 475 128 L 477 123 L 479 122 L 487 109 L 489 108 L 491 103 L 495 99 L 495 97 L 497 96 L 509 77 L 513 73 L 513 71 L 517 67 L 517 65 L 519 64 L 523 57 L 525 56 L 527 51 L 529 50 L 535 40 L 535 36 L 537 34 L 537 26 L 531 13 Z M 153 664 L 181 690 L 227 737 L 223 741 L 218 743 L 217 745 L 215 745 L 211 749 L 209 749 L 198 757 L 196 757 L 195 759 L 193 759 L 189 763 L 187 763 L 183 767 L 181 767 L 177 771 L 175 771 L 171 775 L 166 777 L 165 779 L 163 779 L 152 787 L 150 787 L 149 789 L 147 789 L 143 793 L 141 793 L 137 797 L 135 797 L 131 801 L 129 801 L 125 805 L 120 807 L 119 809 L 117 809 L 112 813 L 110 813 L 109 815 L 107 815 L 103 819 L 101 819 L 97 823 L 92 825 L 91 827 L 89 827 L 84 831 L 82 831 L 81 833 L 76 835 L 75 837 L 73 837 L 68 841 L 66 841 L 65 843 L 63 843 L 61 845 L 57 845 L 55 843 L 55 841 L 59 834 L 59 831 L 61 830 L 61 828 L 65 823 L 67 817 L 69 816 L 69 813 L 71 812 L 71 810 L 75 805 L 77 799 L 79 798 L 81 792 L 85 787 L 87 781 L 89 780 L 89 777 L 91 776 L 91 774 L 95 769 L 97 763 L 99 762 L 103 752 L 107 747 L 107 745 L 109 744 L 109 741 L 111 740 L 111 738 L 117 729 L 121 719 L 123 718 L 123 716 L 127 711 L 129 705 L 133 700 L 133 697 L 135 696 L 135 694 L 139 689 L 141 683 L 143 682 L 143 679 L 145 678 L 145 675 L 147 674 L 149 668 Z M 415 241 L 422 246 L 445 270 L 473 296 L 512 336 L 624 445 L 616 451 L 615 453 L 608 457 L 605 461 L 596 467 L 593 471 L 586 475 L 583 479 L 574 485 L 571 489 L 564 493 L 561 497 L 554 501 L 551 505 L 544 509 L 541 513 L 534 517 L 533 519 L 524 525 L 521 529 L 519 529 L 511 537 L 494 549 L 491 553 L 482 559 L 479 563 L 477 563 L 466 573 L 464 573 L 459 579 L 457 579 L 449 587 L 442 591 L 439 595 L 437 595 L 429 603 L 422 607 L 419 611 L 412 615 L 409 619 L 392 631 L 387 637 L 382 639 L 379 643 L 364 653 L 361 657 L 354 661 L 351 665 L 344 669 L 341 673 L 339 673 L 333 679 L 316 691 L 315 693 L 308 697 L 305 701 L 298 705 L 297 707 L 290 711 L 289 713 L 279 719 L 274 719 L 262 707 L 254 701 L 191 637 L 168 617 L 165 612 L 187 579 L 187 577 L 189 576 L 191 571 L 195 567 L 197 561 L 199 560 L 209 545 L 209 543 L 213 539 L 213 537 L 219 529 L 219 527 L 221 526 L 223 521 L 225 520 L 227 515 L 229 514 L 229 512 L 233 508 L 239 497 L 241 496 L 241 494 L 261 465 L 261 463 L 265 459 L 265 457 L 269 453 L 269 451 L 271 450 L 277 441 L 277 439 L 281 435 L 281 433 L 283 432 L 289 423 L 289 421 L 293 417 L 293 415 L 297 411 L 297 409 L 301 405 L 301 403 L 303 402 L 315 383 L 317 382 L 317 380 L 321 376 L 323 371 L 325 370 L 325 368 L 329 364 L 331 359 L 333 358 L 335 353 L 337 352 L 343 343 L 343 341 L 345 340 L 349 333 L 351 332 L 351 330 L 355 326 L 357 321 L 369 305 L 369 303 L 373 300 L 373 298 L 377 294 L 379 289 L 381 288 L 383 283 L 387 279 L 387 277 L 389 276 L 393 269 L 397 265 L 397 263 L 399 262 L 401 257 L 403 256 L 411 243 Z" fill="#000" fill-rule="evenodd"/>
</svg>