<svg xmlns="http://www.w3.org/2000/svg" width="841" height="847" viewBox="0 0 841 847">
  <path d="M 494 5 L 475 5 L 465 11 L 444 33 L 391 83 L 356 119 L 311 161 L 278 195 L 268 203 L 229 241 L 225 246 L 225 248 L 221 252 L 221 254 L 219 255 L 219 257 L 215 263 L 215 266 L 213 267 L 213 271 L 211 273 L 209 283 L 207 285 L 207 289 L 205 291 L 205 295 L 203 297 L 203 302 L 201 304 L 201 308 L 199 309 L 199 312 L 197 314 L 195 322 L 193 323 L 193 326 L 191 328 L 189 336 L 187 337 L 187 340 L 183 346 L 183 350 L 181 351 L 181 354 L 179 356 L 179 359 L 177 361 L 175 369 L 171 375 L 171 378 L 167 384 L 165 392 L 161 398 L 161 402 L 159 403 L 159 406 L 155 412 L 155 416 L 153 417 L 153 420 L 151 422 L 149 430 L 147 431 L 145 439 L 141 445 L 141 448 L 139 450 L 137 458 L 135 459 L 135 462 L 131 468 L 129 476 L 127 477 L 127 480 L 125 482 L 123 490 L 121 491 L 121 494 L 119 496 L 117 504 L 115 505 L 115 508 L 113 510 L 111 518 L 109 519 L 109 522 L 107 524 L 105 532 L 103 533 L 103 536 L 101 538 L 99 546 L 97 547 L 97 550 L 95 552 L 93 560 L 89 566 L 89 569 L 87 571 L 85 579 L 81 585 L 81 588 L 79 590 L 77 598 L 75 599 L 75 602 L 73 604 L 71 612 L 69 613 L 69 616 L 67 618 L 65 626 L 63 627 L 63 630 L 61 632 L 59 640 L 57 641 L 57 644 L 55 646 L 53 654 L 51 655 L 51 658 L 49 660 L 47 668 L 43 674 L 43 677 L 41 679 L 39 687 L 35 693 L 35 696 L 31 702 L 29 710 L 25 716 L 23 724 L 21 725 L 21 728 L 19 730 L 17 738 L 15 739 L 15 742 L 11 748 L 11 751 L 9 753 L 9 757 L 7 759 L 7 764 L 5 767 L 5 794 L 7 796 L 7 802 L 9 803 L 9 806 L 11 808 L 13 814 L 15 815 L 19 822 L 25 828 L 30 830 L 31 832 L 34 832 L 35 834 L 37 834 L 39 836 L 42 836 L 44 838 L 48 838 L 50 840 L 60 840 L 61 841 L 82 840 L 84 838 L 89 838 L 91 836 L 96 836 L 98 834 L 102 834 L 103 832 L 106 832 L 108 830 L 116 828 L 117 826 L 120 826 L 122 824 L 124 824 L 126 822 L 129 822 L 139 816 L 142 816 L 143 814 L 146 814 L 152 810 L 155 810 L 161 806 L 164 806 L 165 804 L 168 804 L 182 796 L 190 794 L 191 792 L 194 792 L 195 790 L 198 790 L 204 786 L 207 786 L 213 782 L 216 782 L 217 780 L 220 780 L 222 778 L 225 778 L 239 770 L 242 770 L 243 768 L 246 768 L 247 766 L 255 764 L 261 760 L 264 760 L 265 758 L 268 758 L 274 754 L 277 754 L 283 750 L 286 750 L 287 748 L 290 748 L 296 744 L 299 744 L 305 740 L 308 740 L 314 736 L 317 736 L 323 732 L 326 732 L 327 730 L 335 728 L 345 722 L 348 722 L 349 720 L 352 720 L 358 716 L 361 716 L 367 712 L 370 712 L 371 710 L 374 710 L 380 706 L 383 706 L 393 700 L 396 700 L 397 698 L 400 698 L 410 692 L 413 692 L 419 688 L 422 688 L 423 686 L 431 684 L 441 678 L 444 678 L 454 672 L 457 672 L 463 668 L 466 668 L 467 666 L 470 666 L 476 662 L 479 662 L 485 658 L 488 658 L 489 656 L 492 656 L 498 652 L 501 652 L 511 646 L 514 646 L 515 644 L 518 644 L 524 640 L 527 640 L 537 634 L 540 634 L 541 632 L 544 632 L 550 628 L 553 628 L 563 622 L 566 622 L 567 620 L 570 620 L 572 618 L 574 618 L 576 616 L 579 616 L 588 610 L 590 610 L 591 608 L 598 604 L 630 572 L 682 517 L 828 372 L 832 366 L 832 363 L 834 361 L 834 352 L 835 351 L 834 342 L 830 335 L 824 329 L 817 325 L 804 324 L 803 325 L 797 325 L 796 327 L 793 327 L 792 329 L 787 331 L 582 537 L 574 543 L 572 543 L 570 545 L 567 545 L 566 547 L 560 547 L 557 549 L 529 549 L 526 547 L 519 547 L 517 545 L 512 545 L 510 543 L 507 543 L 505 541 L 491 535 L 487 531 L 485 531 L 466 512 L 466 510 L 462 506 L 462 504 L 454 491 L 454 488 L 452 486 L 452 482 L 450 480 L 450 476 L 448 474 L 448 467 L 446 463 L 446 452 L 444 449 L 444 440 L 446 437 L 446 431 L 448 429 L 448 427 L 452 421 L 670 204 L 674 197 L 674 192 L 676 189 L 676 186 L 674 183 L 674 178 L 672 176 L 672 173 L 670 172 L 668 168 L 663 165 L 662 163 L 659 163 L 657 161 L 639 161 L 629 167 L 610 187 L 592 203 L 571 225 L 495 299 L 420 375 L 405 387 L 404 389 L 401 389 L 399 391 L 394 391 L 391 393 L 369 393 L 366 391 L 358 391 L 356 389 L 351 389 L 349 387 L 345 387 L 344 385 L 341 385 L 339 383 L 329 379 L 328 377 L 323 375 L 322 373 L 306 360 L 294 343 L 294 341 L 292 340 L 292 337 L 290 336 L 290 333 L 286 326 L 286 322 L 284 320 L 284 315 L 282 312 L 282 303 L 280 300 L 280 285 L 282 282 L 282 274 L 284 272 L 286 264 L 290 259 L 290 257 L 327 220 L 335 214 L 368 182 L 427 122 L 447 104 L 458 92 L 504 48 L 510 37 L 510 24 L 508 22 L 508 19 L 506 17 L 506 15 Z M 138 599 L 243 704 L 239 705 L 238 707 L 235 707 L 234 709 L 231 709 L 225 713 L 222 713 L 212 719 L 209 719 L 208 721 L 205 721 L 195 727 L 187 729 L 186 731 L 183 731 L 173 737 L 170 737 L 164 741 L 161 741 L 151 747 L 148 747 L 138 753 L 135 753 L 134 755 L 126 757 L 124 759 L 122 759 L 116 763 L 113 763 L 103 769 L 100 769 L 94 773 L 91 773 L 90 775 L 87 775 L 86 777 L 83 777 L 81 779 L 77 779 L 75 781 L 67 781 L 64 778 L 64 770 L 68 763 L 68 759 L 70 758 L 70 755 L 74 749 L 76 741 L 78 740 L 78 737 L 80 735 L 80 732 L 82 730 L 82 727 L 84 725 L 86 717 L 88 716 L 88 713 L 90 712 L 90 709 L 92 707 L 92 704 L 94 702 L 94 699 L 96 697 L 98 689 L 104 679 L 104 676 L 106 674 L 106 671 L 108 669 L 110 661 L 112 660 L 112 657 L 114 655 L 116 647 L 120 641 L 122 633 L 126 627 L 128 619 L 130 618 L 130 615 L 132 613 L 134 605 Z M 240 357 L 242 355 L 245 357 L 245 360 L 247 361 L 249 367 L 267 392 L 281 406 L 298 418 L 299 420 L 301 420 L 306 424 L 308 424 L 309 426 L 311 426 L 313 428 L 316 428 L 327 434 L 330 434 L 332 436 L 336 436 L 338 438 L 343 438 L 345 440 L 352 440 L 354 442 L 364 442 L 367 444 L 387 444 L 389 446 L 389 456 L 391 460 L 391 470 L 393 473 L 393 480 L 395 482 L 395 488 L 397 490 L 397 495 L 399 497 L 399 501 L 401 503 L 401 506 L 403 508 L 405 516 L 407 517 L 407 520 L 409 522 L 411 528 L 413 529 L 413 531 L 417 536 L 417 538 L 419 539 L 429 554 L 443 568 L 452 574 L 453 576 L 458 578 L 459 580 L 461 580 L 466 584 L 468 584 L 469 586 L 472 586 L 479 590 L 484 590 L 486 593 L 484 595 L 481 595 L 480 597 L 477 597 L 476 599 L 473 599 L 459 607 L 456 607 L 446 613 L 443 613 L 442 615 L 439 615 L 438 617 L 430 619 L 420 625 L 417 625 L 416 627 L 413 627 L 411 629 L 409 629 L 407 631 L 404 631 L 394 637 L 391 637 L 390 639 L 387 639 L 385 641 L 383 641 L 382 643 L 374 645 L 368 649 L 365 649 L 364 651 L 361 651 L 359 653 L 357 653 L 355 655 L 352 655 L 342 661 L 339 661 L 338 663 L 335 663 L 334 665 L 331 665 L 330 667 L 322 669 L 312 675 L 309 675 L 308 677 L 305 677 L 303 679 L 300 679 L 298 681 L 294 682 L 160 547 L 164 541 L 164 538 L 166 536 L 168 528 L 172 522 L 172 519 L 174 517 L 176 509 L 180 503 L 182 495 L 184 493 L 184 491 L 186 489 L 186 486 L 188 484 L 188 481 L 192 475 L 192 471 L 196 465 L 196 461 L 198 460 L 198 457 L 200 456 L 200 453 L 202 451 L 202 448 L 204 446 L 204 443 L 206 441 L 208 433 L 212 427 L 212 424 L 214 422 L 216 414 L 220 408 L 220 405 L 222 403 L 224 395 L 226 394 L 226 391 L 228 389 L 230 381 L 232 380 L 232 377 L 234 375 L 234 372 L 236 370 L 236 367 L 238 365 Z" fill="#000" fill-rule="evenodd"/>
</svg>